<svg xmlns="http://www.w3.org/2000/svg" xmlns:svg="http://www.w3.org/2000/svg" id="svg2" width="256" height="256" version="1.1" viewBox="0 0 256 256"><metadata id="metadata69"/><defs id="defs4"><linearGradient id="blueFade" x1="0%" x2="0%" y1="0%" y2="100%"><stop id="stop7" offset="0%" stop-color="#81b4e0"/><stop id="stop9" offset="100%" stop-color="#0c5a94"/></linearGradient><linearGradient id="redFade" x1="128" x2="128" y1="16" y2="107" gradientUnits="userSpaceOnUse"><stop id="stop12" offset="0%" stop-color="#f06b59"/><stop id="stop14" offset="100%" stop-color="#df2227"/></linearGradient><linearGradient id="greenFade" x1="72" x2="118" y1="225" y2="149" gradientUnits="userSpaceOnUse"><stop id="stop17" offset="0%" stop-color="#388b41"/><stop id="stop19" offset="100%" stop-color="#4cb749"/></linearGradient><linearGradient id="yellowFade" x1="187" x2="138" y1="220" y2="102" gradientUnits="userSpaceOnUse"><stop id="stop22" offset="0%" stop-color="#e4b022"/><stop id="stop24" offset="30%" stop-color="#fcd209"/></linearGradient><linearGradient id="redShadow" x1="80" x2="80" y1="140" y2="60" gradientUnits="userSpaceOnUse"><stop id="stop27" offset="0%" stop-color="#000" stop-opacity=".15"/><stop id="stop29" offset="30%" stop-color="#000" stop-opacity=".06"/><stop id="stop31" offset="100%" stop-color="#000" stop-opacity=".03"/></linearGradient><linearGradient id="greenShadow" x1="164" x2="109" y1="161" y2="217" gradientUnits="userSpaceOnUse"><stop id="stop34" offset="0%" stop-color="#000" stop-opacity=".15"/><stop id="stop36" offset="30%" stop-color="#000" stop-opacity=".06"/><stop id="stop38" offset="100%" stop-color="#000" stop-opacity=".03"/></linearGradient><linearGradient id="yellowShadow" x1="139" x2="147" y1="179" y2="100" gradientUnits="userSpaceOnUse"><stop id="stop41" offset="0%" stop-color="#000" stop-opacity=".15"/><stop id="stop43" offset="30%" stop-color="#000" stop-opacity=".06"/><stop id="stop45" offset="100%" stop-color="#000" stop-opacity=".03"/></linearGradient></defs><circle id="circle47" cx="128" cy="128" r="110" fill="#fff"/><path id="path49" fill="#000" fill-opacity=".1" d="M 198 148 A 70 70 0 0 0 58 148 L 78 148 A 50 50 0 0 1 178 148"/><circle id="circle51" cx="133" cy="142" r="38" fill="#000" fill-opacity=".1"/><circle id="circle53" cx="50%" cy="50%" r="41" fill="url(#blueFade)"/><path id="path55" fill="url(#redFade)" d="M 228 78 A 112 112 0 0 0 35 65 L 80 143 A 50 50 0 0 1 127 78"/><path id="path57" fill="url(#greenFade)" d="M 35 65 A 112 112 0 0 0 119 239 L 166 159 A 50 50 0 0 1 80 143"/><path id="path59" fill="url(#yellowFade)" d="M 119 239 A 112 112 0 0 0 228 78 L 127 78 A 50 50 0 0 1 166 159"/><path id="path61" fill="url(#redShadow)" d="M 35 65 L 80 143 A 50 50 0 0 1 82 109 L 37 62"/><path id="path63" fill="url(#greenShadow)" d="M 119 239 L 166 159 A 50 50 0 0 1 137 176 L 117 239"/><path id="path65" fill="url(#yellowShadow)" d="M 228 78 L 127 78 A 50 50 0 0 1 166 97 L 230 81"/></svg>